# xmcd
#
# Track frame offsets: 
#        150
#        10772
#        25795
#        35677
#        44982
#        57312
#        66130
#        73755
#        84715
#        94200
#        102290
#        113552
#        127110
#        136172
#        144700
#        154555
#        167020
#        175007
#        184297
#        193295
#        202787
#        212685
#        223827
#        231922
#        241742
#        253990
#        265820
#        276522
#        288382
#        297650
#        305620
#        313742
#        322390
#        334500
#        343775
#        355177
#
# Disc length: 4899 seconds
#
# Revision: 0
# Processed by: cddbd v1.5.2PL0 Copyright (c) Steve Scherf et al.
# Submitted via: ExactAudioCopy v0.99pb4
#
DISCID=45132124
DTITLE=The Texas Troubadours - Almost To Tulsa-The Instrumentals
DYEAR=2008
DGENRE=Country
TTITLE0=Rose City Chimes
TTITLE1=Danny Boy 
TTITLE2=Tuxedo Junction
TTITLE3=Almost to Tulsa
TTITLE4=Leon's Guitar Boogie [115 459 Alt]
TTITLE5=C-Jam Blues
TTITLE6=Cool It
TTITLE7=The Waltz You Saved for Me
TTITLE8=Rhodes-Bug Boogie
TTITLE9=Walking the Floor Over You
TTITLE10=Honey Fingers
TTITLE11=Steel Guitar Rag
TTITLE12=Lover's Waltz
TTITLE13=Panhandle Rag
TTITLE14=Gardenia Waltz
TTITLE15=Redskin Rag
TTITLE16=Texas Troubadour Stomp
TTITLE17=E.T. Blues
TTITLE18=Nashville Shuffle
TTITLE19=Jamming with C and C
TTITLE20=Cain's Corner
TTITLE21=Big Beaver
TTITLE22=12th Street Rag
TTITLE23=Ridgetop Stomp
TTITLE24=Cocoanut Grove
TTITLE25=Red Top
TTITLE26=Take That
TTITLE27=Twilight Over Texas
TTITLE28=Leon's Guitar Boogie [115 481]
TTITLE29=Buddie's Boogie
TTITLE30=This Ain't the Blues
TTITLE31=Buddy Emmons: Four Wheel Drive
TTITLE32=Buddy Emmons: Blue Wind
TTITLE33=Buddy Emmons: Highland Swing
TTITLE34=Buddy Emmons: Greensleeves
TTITLE35=Leon's Guitar Boogie [115 459]
EXTD=
EXTT0=
EXTT1=
EXTT2=
EXTT3=
EXTT4=
EXTT5=
EXTT6=
EXTT7=
EXTT8=
EXTT9=
EXTT10=
EXTT11=
EXTT12=
EXTT13=
EXTT14=
EXTT15=
EXTT16=
EXTT17=
EXTT18=
EXTT19=
EXTT20=
EXTT21=
EXTT22=
EXTT23=
EXTT24=
EXTT25=
EXTT26=
EXTT27=
EXTT28=
EXTT29=
EXTT30=
EXTT31=
EXTT32=
EXTT33=
EXTT34=
EXTT35=
PLAYORDER=
